<svg width="86" height="128" viewBox="0 0 86 128" fill="none" xmlns="http://www.w3.org/2000/svg">
<g clip-path="url(#clip0_137_897)">
<rect width="86" height="128" rx="8" fill="white"/>
<rect x="11.5" y="11.5" width="63" height="105" rx="4.5" fill="#0C0D14" stroke="#0C0D14" stroke-width="7"/>
<path d="M15 44H71V112H15V44Z" fill="white"/>
<rect x="15" y="32" width="56" height="8" fill="white"/>
<path d="M15 20C15 17.7909 16.7909 16 19 16H67C69.2091 16 71 17.7909 71 20V28H15V20Z" fill="white"/>
<path d="M26.9586 99V55.3636H44.4302C47.6404 55.3636 50.318 55.8395 52.4629 56.7912C54.6078 57.7429 56.22 59.0639 57.2995 60.7543C58.3791 62.4304 58.9189 64.3622 58.9189 66.5497C58.9189 68.2543 58.5779 69.7528 57.8961 71.0455C57.2143 72.3239 56.2768 73.375 55.0836 74.1989C53.9047 75.0085 52.5552 75.5838 51.0353 75.9247V76.3509C52.6973 76.4219 54.2527 76.8906 55.7015 77.7571C57.1646 78.6236 58.3507 79.8381 59.2598 81.4006C60.1689 82.9489 60.6234 84.7955 60.6234 86.9403C60.6234 89.2557 60.0481 91.3224 58.8975 93.1406C57.7612 94.9446 56.0779 96.3722 53.8478 97.4233C51.6177 98.4744 48.8691 99 45.6021 99H26.9586ZM36.1845 91.4574H43.7058C46.2768 91.4574 48.1518 90.9673 49.3308 89.9872C50.5098 88.9929 51.0993 87.6719 51.0993 86.0241C51.0993 84.8168 50.8081 83.7514 50.2257 82.8281C49.6433 81.9048 48.8123 81.1804 47.7328 80.6548C46.6674 80.1293 45.3961 79.8665 43.9189 79.8665H36.1845V91.4574ZM36.1845 73.6236H43.024C44.2882 73.6236 45.4103 73.4034 46.3904 72.9631C47.3848 72.5085 48.166 71.8693 48.7342 71.0455C49.3166 70.2216 49.6078 69.2344 49.6078 68.0838C49.6078 66.5071 49.0467 65.2358 47.9245 64.2699C46.8166 63.304 45.2399 62.821 43.1944 62.821H36.1845V73.6236Z" fill="#0C0D14"/>
</g>
<defs>
<clipPath id="clip0_137_897">
<rect width="86" height="128" rx="8" fill="white"/>
</clipPath>
</defs>
</svg>